#!OML:ASF H:\Punching\Project 1\Capture day 1\Session 1\female.ASF
:FULLY-SPECIFIED
:DEGREES
2814
root -3.12248 15.7017 8.38294 10.8199 -7.23068 1.58606
lowerback -0.120301 -1.00007 1.32788
upperback -5.42581 -1.37322 -1.31604
thorax -5.61188 -0.787226 -2.0423
lowerneck -9.64326 4.88655 10.9157
upperneck 31.7465 5.86886 -4.16884
head 12.607 3.37689 -2.69083
rclavicle 2.49776e-014 9.54166e-015
rhumerus -23.7345 14.6929 -68.3819
rradius 128.261
rwrist -4.77628
rhand -33.1662 4.47421
rfingers 7.12502
rthumb -6.37464 -25.4099
lclavicle 2.49776e-014 9.54166e-015
lhumerus -39.0475 6.53273 52.9281
lradius 137.36
lwrist 4.411
lhand -22.3439 11.5571
lfingers 7.12502
lthumb 4.07669 41.4978
rfemur -12.8771 5.71955 18.2141
rtibia 27.421
rfoot -21.6331 -16.4799
rtoes -3.71495
lfemur -25.9403 -6.39454 -6.65373
ltibia 22.9382
lfoot -2.48093 16.4491
ltoes 2.03511
2815
root -3.14455 15.7105 8.33083 10.8971 -6.86096 1.58672
lowerback -0.227037 -0.962436 1.37748
upperback -5.447 -1.32146 -1.30821
thorax -5.57181 -0.763359 -2.06615
lowerneck -9.7017 4.74039 10.7306
upperneck 31.6309 5.67165 -4.10494
head 12.5413 3.27416 -2.6605
rclavicle 1.13513e-014 7.55382e-015
rhumerus -24.3425 14.2477 -68.2347
rradius 127.97
rwrist -4.73501
rhand -33.1483 4.54132
rfingers 7.12502
rthumb -6.3574 -25.3433
lclavicle 1.13513e-014 7.55382e-015
lhumerus -38.8624 6.76666 52.7237
lradius 137.067
lwrist 4.69944
lhand -22.4938 11.651
lfingers 7.12502
lthumb 3.93191 41.5944
rfemur -13.0606 5.62894 18.3485
rtibia 27.3683
rfoot -21.523 -16.5925
rtoes -3.43123
lfemur -25.7659 -6.0719 -6.95894
ltibia 23.8727
lfoot -3.13293 16.0711
ltoes 1.34311
2816
root -3.16495 15.7199 8.28321 10.9708 -6.49345 1.55408
lowerback -0.32679 -0.933956 1.45827
upperback -5.49767 -1.28047 -1.28023
thorax -5.56767 -0.746397 -2.08563
lowerneck -9.70664 4.59713 10.5381
upperneck 31.5402 5.48888 -4.04609
head 12.4765 3.17738 -2.62995
rclavicle -2.59662e-015 3.47873e-015
rhumerus -24.9656 13.8289 -68.0811
rradius 127.66
rwrist -4.72117
rhand -33.0623 4.55574
rfingers 7.12502
rthumb -6.2744 -25.3313
lclavicle -2.59662e-015 3.47873e-015
lhumerus -38.6788 6.9646 52.4602
lradius 136.71
lwrist 4.97168
lhand -22.593 11.7681
lfingers 7.12502
lthumb 3.83613 41.7133
rfemur -13.1904 5.55039 18.5095
rtibia 27.2605
rfoot -21.4117 -16.6965
rtoes -3.10405
lfemur -25.5666 -5.83421 -7.18977
ltibia 24.7923
lfoot -3.78867 15.6877
ltoes 0.66278
2817
root -3.18415 15.7292 8.2388 11.0383 -6.12784 1.51256
lowerback -0.415094 -0.916472 1.54001
upperback -5.57115 -1.25384 -1.2404
thorax -5.59461 -0.736842 -2.09225
lowerneck -9.67779 4.46238 10.3556
upperneck 31.4789 5.32569 -4.00306
head 12.4203 3.08935 -2.60522
rclavicle -1.74643e-014 8.05078e-015
rhumerus -25.5857 13.4326 -67.9226
rradius 127.339
rwrist -4.78367
rhand -32.9002 4.52925
rfingers 7.12502
rthumb -6.11787 -25.3624
lclavicle -1.74643e-014 8.05078e-015
lhumerus -38.525 7.12858 52.139
lradius 136.28
lwrist 5.19181
lhand -22.6978 11.8713
lfingers 7.12502
lthumb 3.73493 41.8183
rfemur -13.2837 5.49375 18.6714
rtibia 27.1228
rfoot -21.3092 -16.7995
rtoes -2.71139
lfemur -25.3463 -5.66644 -7.3794
ltibia 25.6902
lfoot -4.43576 15.2753
ltoes -0.0338776
2818
root -3.20231 15.7378 8.19678 11.0964 -5.76553 1.46757
lowerback -0.485201 -0.910953 1.61249
upperback -5.65936 -1.24295 -1.18939
thorax -5.64784 -0.734801 -2.08093
lowerneck -9.64066 4.34304 10.1832
upperneck 31.4504 5.18807 -3.97254
head 12.3794 3.0129 -2.58375
rclavicle 8.59977e-015 1.30204e-014
rhumerus -26.1859 13.0579 -67.7537
rradius 126.999
rwrist -4.9255
rhand -32.6421 4.45543
rfingers 7.12502
rthumb -5.86868 -25.4433
lclavicle 8.59977e-015 1.30204e-014
lhumerus -38.4089 7.28435 51.7577
lradius 135.78
lwrist 5.38041
lhand -22.7545 11.9351
lfingers 7.12502
lthumb 3.68022 41.8831
rfemur -13.3541 5.4604 18.8309
rtibia 26.9776
rfoot -21.2136 -16.9109
rtoes -2.28385
lfemur -25.0959 -5.54264 -7.54582
ltibia 26.5574
lfoot -5.06277 14.8194
ltoes -0.780785
2819
root -3.21948 15.7453 8.15371 11.1612 -5.38746 1.43691
lowerback -0.557476 -0.917204 1.66734
upperback -5.74198 -1.24844 -1.14119
thorax -5.69441 -0.740048 -2.06193
lowerneck -9.62335 4.23656 10.0294
upperneck 31.4333 5.06701 -3.955
head 12.3504 2.94429 -2.56779
rclavicle -1.25988e-014 1.44119e-014
rhumerus -26.7263 12.6635 -67.5692
rradius 126.624
rwrist -5.14057
rhand -32.3707 4.48757
rfingers 7.12502
rthumb -5.60661 -25.4183
lclavicle -1.25988e-014 1.44119e-014
lhumerus -38.2632 7.43649 51.3292
lradius 135.178
lwrist 5.52044
lhand -22.7205 12.0174
lfingers 7.12502
lthumb 3.71305 41.9648
rfemur -13.4542 5.43813 18.9705
rtibia 26.8659
rfoot -21.1259 -17.0462
rtoes -1.84066
lfemur -24.8512 -5.46073 -7.70659
ltibia 27.3819
lfoot -5.6428 14.3179
ltoes -1.55676
2820
root -3.23562 15.7519 8.10922 11.2356 -4.98694 1.42714
lowerback -0.63505 -0.923385 1.71103
upperback -5.82716 -1.25464 -1.10281
thorax -5.74073 -0.745417 -2.04692
lowerneck -9.60496 4.13035 9.87941
upperneck 31.4262 4.94602 -3.93763
head 12.3258 2.87635 -2.55254
rclavicle -6.13515e-015 -5.06901e-015
rhumerus -27.2485 12.2298 -67.3558
rradius 126.222
rwrist -5.38757
rhand -32.0405 4.47819
rfingers 7.12502
rthumb -5.28783 -25.4358
lclavicle -6.13515e-015 -5.06901e-015
lhumerus -38.0404 7.53699 50.8941
lradius 134.456
lwrist 5.5863
lhand -22.6544 12.1525
lfingers 7.12502
lthumb 3.7768 42.0988
rfemur -13.596 5.41363 19.0837
rtibia 26.804
rfoot -21.0509 -17.2046
rtoes -1.41386
lfemur -24.6183 -5.4322 -7.86534
ltibia 28.1513
lfoot -6.17451 13.7879
ltoes -2.30479
2821
root -3.25103 15.7572 8.06227 11.3208 -4.57472 1.43985
lowerback -0.70445 -0.947312 1.71611
upperback -5.89492 -1.28552 -1.06521
thorax -5.77351 -0.760838 -2.00991
lowerneck -9.64236 4.03976 9.74177
upperneck 31.4178 4.84242 -3.93174
head 12.315 2.81539 -2.54042
rclavicle 1.1083e-014 1.19271e-015
rhumerus -27.6691 11.7838 -67.1305
rradius 125.761
rwrist -5.60141
rhand -31.7847 4.53193
rfingers 7.12502
rthumb -5.04084 -25.3881
lclavicle 1.1083e-014 1.19271e-015
lhumerus -37.7746 7.66991 50.4289
lradius 133.648
lwrist 5.63256
lhand -22.5528 12.2444
lfingers 7.12502
lthumb 3.87498 42.1889
rfemur -13.7979 5.40402 19.1695
rtibia 26.8074
rfoot -20.9868 -17.3989
rtoes -1.01295
lfemur -24.3888 -5.43093 -8.03196
ltibia 28.8547
lfoot -6.65319 13.2283
ltoes -3.1049
2822
root -3.26561 15.7623 8.0157 11.408 -4.16408 1.46946
lowerback -0.77913 -0.97556 1.69743
upperback -5.95684 -1.32297 -1.03062
thorax -5.7968 -0.778248 -1.96258
lowerneck -9.69245 3.954 9.60885
upperneck 31.4091 4.74478 -3.92986
head 12.3076 2.75694 -2.52959
rclavicle 3.57968e-016 -4.82053e-015
rhumerus -28.044 11.3192 -66.8875
rradius 125.246
rwrist -5.75945
rhand -31.5571 4.61926
rfingers 7.12502
rthumb -4.82108 -25.3059
lclavicle 3.57968e-016 -4.82053e-015
lhumerus -37.4545 7.78596 49.9628
lradius 132.736
lwrist 5.62835
lhand -22.4652 12.3296
lfingers 7.12502
lthumb 3.95951 42.2725
rfemur -14.028 5.39914 19.2318
rtibia 26.8568
rfoot -20.9599 -17.6013
rtoes -0.57491
lfemur -24.1348 -5.46359 -8.20302
ltibia 29.4833
lfoot -7.09692 12.6566
ltoes -3.9009
2823
root -3.27919 15.7671 7.96805 11.4993 -3.74163 1.52689
lowerback -0.856313 -1.01887 1.64545
upperback -6.00353 -1.38171 -1.00248
thorax -5.80269 -0.804411 -1.90256
lowerneck -9.77192 3.87984 9.49137
upperneck 31.3933 4.6597 -3.93569
head 12.3055 2.70442 -2.52208
rclavicle 1.42884e-014 -2.09718e-014
rhumerus -28.3524 10.8432 -66.6394
rradius 124.659
rwrist -5.82348
rhand -31.4034 4.76416
rfingers 7.12502
rthumb -4.67268 -25.1643
lclavicle 1.42884e-014 -2.09718e-014
lhumerus -37.1 7.8971 49.4917
lradius 131.735
lwrist 5.60688
lhand -22.3737 12.4353
lfingers 7.12502
lthumb 4.04788 42.3766
rfemur -14.2882 5.38402 19.2602
rtibia 26.9409
rfoot -20.95 -17.8161
rtoes -0.138021
lfemur -23.8678 -5.5309 -8.39057
ltibia 30.0297
lfoot -7.49787 12.0656
ltoes -4.73923
2824
root -3.29147 15.7718 7.92315 11.5768 -3.32596 1.58817
lowerback -0.920627 -1.07552 1.57686
upperback -6.05613 -1.45812 -0.96531
thorax -5.82213 -0.838404 -1.82289
lowerneck -9.8295 3.81263 9.37335
upperneck 31.3722 4.58851 -3.94673
head 12.2981 2.65746 -2.5148
rclavicle -1.77004e-014 3.57812e-015
rhumerus -28.6437 10.3904 -66.3861
rradius 124.007
rwrist -5.80652
rhand -31.2578 4.93009
rfingers 7.12502
rthumb -4.5321 -25.0014
lclavicle -1.77004e-014 3.57812e-015
lhumerus -36.7746 7.99924 49.0131
lradius 130.664
lwrist 5.60236
lhand -22.2533 12.5314
lfingers 7.12502
lthumb 4.16414 42.4705
rfemur -14.5253 5.35732 19.2781
rtibia 27.0343
rfoot -20.9781 -18.0075
rtoes 0.345404
lfemur -23.5367 -5.6187 -8.58018
ltibia 30.4911
lfoot -7.88228 11.4619
ltoes -5.64983
2825
root -3.30193 15.7765 7.88057 11.6446 -2.90566 1.6686
lowerback -0.983087 -1.1418 1.49295
upperback -6.11127 -1.5479 -0.931737
thorax -5.84529 -0.878375 -1.73782
lowerneck -9.859 3.75188 9.26899
upperneck 31.3388 4.52935 -3.96791
head 12.2817 2.61636 -2.51228
rclavicle -7.83724e-015 -6.41081e-015
rhumerus -28.9304 9.94363 -66.1311
rradius 123.299
rwrist -5.72436
rhand -31.1191 5.05783
rfingers 7.12502
rthumb -4.39811 -24.8765
lclavicle -7.83724e-015 -6.41081e-015
lhumerus -36.4517 8.07314 48.5458
lradius 129.518
lwrist 5.59139
lhand -22.1161 12.6572
lfingers 7.12502
lthumb 4.29665 42.5937
rfemur -14.7411 5.29439 19.2676
rtibia 27.1309
rfoot -21.0332 -18.1664
rtoes 0.843649
lfemur -23.1567 -5.74204 -8.78809
ltibia 30.8705
lfoot -8.24997 10.8545
ltoes -6.60542
2826
root -3.31059 15.7809 7.83993 11.704 -2.48262 1.75057
lowerback -1.0396 -1.21568 1.41094
upperback -6.17122 -1.64756 -0.894925
thorax -5.87703 -0.923298 -1.64994
lowerneck -9.87105 3.69621 9.17236
upperneck 31.3019 4.48051 -3.99899
head 12.2617 2.57971 -2.51361
rclavicle 1.37805e-014 6.26172e-015
rhumerus -29.2285 9.51863 -65.8734
rradius 122.537
rwrist -5.58705
rhand -30.9626 5.09505
rfingers 7.12502
rthumb -4.247 -24.8424
lclavicle 1.37805e-014 6.26172e-015
lhumerus -36.1433 8.12107 48.0961
lradius 128.302
lwrist 5.58997
lhand -21.9586 12.7916
lfingers 7.12502
lthumb 4.44871 42.7249
rfemur -14.9297 5.2019 19.2484
rtibia 27.2157
rfoot -21.0967 -18.2953
rtoes 1.32635
lfemur -22.7328 -5.89472 -8.99477
ltibia 31.1744
lfoot -8.60422 10.2573
ltoes -7.61867
2827
root -3.31707 15.7851 7.80002 11.7622 -2.05376 1.82582
lowerback -1.10002 -1.2889 1.35014
upperback -6.22619 -1.74587 -0.860225
thorax -5.90163 -0.968549 -1.57641
lowerneck -9.87998 3.64114 9.08171
upperneck 31.2547 4.43227 -4.03329
head 12.2371 2.54353 -2.51697
rclavicle 4.38452e-015 2.09966e-014
rhumerus -29.5331 9.08845 -65.612
rradius 121.73
rwrist -5.43064
rhand -30.84 5.06682
rfingers 7.12502
rthumb -4.1286 -24.8729
lclavicle 4.38452e-015 2.09966e-014
lhumerus -35.812 8.14443 47.6757
lradius 127.008
lwrist 5.58563
lhand -21.7561 12.9192
lfingers 7.12502
lthumb 4.64426 42.8483
rfemur -15.1064 5.07716 19.228
rtibia 27.2911
rfoot -21.1516 -18.4004
rtoes 1.75754
lfemur -22.286 -6.08398 -9.18923
ltibia 31.4096
lfoot -8.94321 9.68903
ltoes -8.6261
2828
root -3.32156 15.7887 7.76083 11.821 -1.62709 1.87892
lowerback -1.16223 -1.35852 1.32196
upperback -6.2799 -1.83839 -0.82232
thorax -5.92442 -1.01245 -1.51818
lowerneck -9.88632 3.5838 8.99458
upperneck 31.1977 4.38117 -4.07169
head 12.2081 2.5059 -2.52275
rclavicle -2.05715e-014 8.92046e-015
rhumerus -29.8571 8.66076 -65.3482
rradius 120.892
rwrist -5.31754
rhand -30.6513 4.93757
rfingers 7.12502
rthumb -3.94642 -25.0056
lclavicle -2.05715e-014 8.92046e-015
lhumerus -35.4673 8.1415 47.2889
lradius 125.639
lwrist 5.57395
lhand -21.5098 13.037
lfingers 7.12502
lthumb 4.88213 42.9607
rfemur -15.2732 4.93572 19.2227
rtibia 27.3531
rfoot -21.1936 -18.4883
rtoes 2.14232
lfemur -21.8189 -6.29883 -9.3558
ltibia 31.5777
lfoot -9.2699 9.16929
ltoes -9.62851
